<svg width="241" height="22" viewBox="0 0 241 22" fill="none" xmlns="http://www.w3.org/2000/svg">
<path d="M38.1426 17V4.20312H42.0801C43.2051 4.20312 44.21 4.45801 45.0947 4.96777C45.9854 5.47168 46.6797 6.19238 47.1777 7.12988C47.6758 8.06152 47.9248 9.12207 47.9248 10.3115V10.9004C47.9248 12.0898 47.6787 13.1475 47.1865 14.0732C46.7002 14.999 46.0117 15.7168 45.1211 16.2266C44.2305 16.7363 43.2256 16.9941 42.1064 17H38.1426ZM40.7793 6.33887V14.8818H42.0537C43.085 14.8818 43.873 14.5449 44.418 13.8711C44.9629 13.1973 45.2412 12.2334 45.2529 10.9795V10.3027C45.2529 9.00195 44.9834 8.01758 44.4443 7.34961C43.9053 6.67578 43.1172 6.33887 42.0801 6.33887H40.7793ZM49.2871 12.1572C49.2871 11.2139 49.4688 10.373 49.832 9.63477C50.1953 8.89648 50.7168 8.3252 51.3965 7.9209C52.082 7.5166 52.876 7.31445 53.7783 7.31445C55.0615 7.31445 56.1074 7.70703 56.916 8.49219C57.7305 9.27734 58.1846 10.3438 58.2783 11.6914L58.2959 12.3418C58.2959 13.8008 57.8887 14.9727 57.0742 15.8574C56.2598 16.7363 55.167 17.1758 53.7959 17.1758C52.4248 17.1758 51.3291 16.7363 50.5088 15.8574C49.6943 14.9785 49.2871 13.7832 49.2871 12.2715V12.1572ZM51.8271 12.3418C51.8271 13.2441 51.9971 13.9355 52.3369 14.416C52.6768 14.8906 53.1631 15.1279 53.7959 15.1279C54.4111 15.1279 54.8916 14.8936 55.2373 14.4248C55.583 13.9502 55.7559 13.1943 55.7559 12.1572C55.7559 11.2725 55.583 10.5869 55.2373 10.1006C54.8916 9.61426 54.4053 9.37109 53.7783 9.37109C53.1572 9.37109 52.6768 9.61426 52.3369 10.1006C51.9971 10.5811 51.8271 11.3281 51.8271 12.3418ZM63.8154 15.1279C64.2842 15.1279 64.665 14.999 64.958 14.7412C65.251 14.4834 65.4033 14.1406 65.415 13.7129H67.7969C67.791 14.3574 67.6152 14.9492 67.2695 15.4883C66.9238 16.0215 66.4492 16.4375 65.8457 16.7363C65.248 17.0293 64.5859 17.1758 63.8594 17.1758C62.5 17.1758 61.4277 16.7451 60.6426 15.8838C59.8574 15.0166 59.4648 13.8213 59.4648 12.2979V12.1309C59.4648 10.666 59.8545 9.49707 60.6338 8.62402C61.4131 7.75098 62.4824 7.31445 63.8418 7.31445C65.0312 7.31445 65.9834 7.6543 66.6982 8.33398C67.4189 9.00781 67.7852 9.90723 67.7969 11.0322H65.415C65.4033 10.54 65.251 10.1416 64.958 9.83691C64.665 9.52637 64.2783 9.37109 63.7979 9.37109C63.2061 9.37109 62.7578 9.58789 62.4531 10.0215C62.1543 10.4492 62.0049 11.1465 62.0049 12.1133V12.377C62.0049 13.3555 62.1543 14.0586 62.4531 14.4863C62.752 14.9141 63.2061 15.1279 63.8154 15.1279ZM77.1133 11.7705H72.0508V17H69.4141V4.20312H77.7461V6.33887H72.0508V9.64355H77.1133V11.7705ZM81.7891 17H79.2402V3.5H81.7891V17ZM83.4941 12.1572C83.4941 11.2139 83.6758 10.373 84.0391 9.63477C84.4023 8.89648 84.9238 8.3252 85.6035 7.9209C86.2891 7.5166 87.083 7.31445 87.9854 7.31445C89.2686 7.31445 90.3145 7.70703 91.123 8.49219C91.9375 9.27734 92.3916 10.3438 92.4854 11.6914L92.5029 12.3418C92.5029 13.8008 92.0957 14.9727 91.2812 15.8574C90.4668 16.7363 89.374 17.1758 88.0029 17.1758C86.6318 17.1758 85.5361 16.7363 84.7158 15.8574C83.9014 14.9785 83.4941 13.7832 83.4941 12.2715V12.1572ZM86.0342 12.3418C86.0342 13.2441 86.2041 13.9355 86.5439 14.416C86.8838 14.8906 87.3701 15.1279 88.0029 15.1279C88.6182 15.1279 89.0986 14.8936 89.4443 14.4248C89.79 13.9502 89.9629 13.1943 89.9629 12.1572C89.9629 11.2725 89.79 10.5869 89.4443 10.1006C89.0986 9.61426 88.6123 9.37109 87.9854 9.37109C87.3643 9.37109 86.8838 9.61426 86.5439 10.1006C86.2041 10.5811 86.0342 11.3281 86.0342 12.3418ZM102.338 13.5459L103.586 7.49023H106.038L103.612 17H101.485L99.6836 11.0146L97.8818 17H95.7637L93.3379 7.49023H95.79L97.0293 13.5371L98.7695 7.49023H100.606L102.338 13.5459Z" fill="black"/>
<path d="M114.03 17V8.74707H112.527V7.49023H114.03V6.51465C114.03 5.49512 114.303 4.70703 114.848 4.15039C115.393 3.59375 116.163 3.31543 117.159 3.31543C117.534 3.31543 117.906 3.36523 118.275 3.46484L118.188 4.7832C117.912 4.73047 117.619 4.7041 117.309 4.7041C116.781 4.7041 116.374 4.85938 116.087 5.16992C115.8 5.47461 115.656 5.91406 115.656 6.48828V7.49023H117.687V8.74707H115.656V17H114.03ZM119.058 12.1572C119.058 11.2256 119.239 10.3877 119.603 9.64355C119.972 8.89941 120.481 8.3252 121.132 7.9209C121.788 7.5166 122.535 7.31445 123.373 7.31445C124.668 7.31445 125.714 7.7627 126.511 8.65918C127.313 9.55566 127.715 10.748 127.715 12.2363V12.3506C127.715 13.2764 127.536 14.1084 127.179 14.8467C126.827 15.5791 126.32 16.1504 125.658 16.5605C125.002 16.9707 124.246 17.1758 123.391 17.1758C122.102 17.1758 121.056 16.7275 120.253 15.8311C119.456 14.9346 119.058 13.748 119.058 12.2715V12.1572ZM120.692 12.3506C120.692 13.4053 120.936 14.252 121.422 14.8906C121.914 15.5293 122.57 15.8486 123.391 15.8486C124.217 15.8486 124.873 15.5264 125.359 14.8818C125.846 14.2314 126.089 13.3232 126.089 12.1572C126.089 11.1143 125.84 10.2705 125.342 9.62598C124.85 8.97559 124.193 8.65039 123.373 8.65039C122.57 8.65039 121.923 8.96973 121.431 9.6084C120.938 10.2471 120.692 11.1611 120.692 12.3506ZM134.351 8.94922C134.104 8.9082 133.838 8.8877 133.551 8.8877C132.484 8.8877 131.761 9.3418 131.38 10.25V17H129.754V7.49023H131.336L131.362 8.58887C131.896 7.73926 132.651 7.31445 133.63 7.31445C133.946 7.31445 134.187 7.35547 134.351 7.4375V8.94922ZM150.021 15.3213C149.588 15.9424 148.981 16.4082 148.202 16.7188C147.429 17.0234 146.526 17.1758 145.495 17.1758C144.452 17.1758 143.526 16.9326 142.718 16.4463C141.909 15.9541 141.282 15.2568 140.837 14.3545C140.397 13.4521 140.172 12.4062 140.16 11.2168V10.1006C140.16 8.17285 140.608 6.67871 141.505 5.61816C142.407 4.55762 143.673 4.02734 145.302 4.02734C146.638 4.02734 147.713 4.37012 148.527 5.05566C149.342 5.73535 149.84 6.70215 150.021 7.95605H148.334C148.018 6.2627 147.01 5.41602 145.311 5.41602C144.18 5.41602 143.321 5.81445 142.735 6.61133C142.155 7.40234 141.862 8.55078 141.856 10.0566V11.1025C141.856 12.5381 142.185 13.6807 142.841 14.5303C143.497 15.374 144.385 15.7959 145.504 15.7959C146.137 15.7959 146.69 15.7256 147.165 15.585C147.64 15.4443 148.032 15.207 148.343 14.873V11.999H145.381V10.6279H150.021V15.3213ZM152.157 12.1572C152.157 11.2256 152.339 10.3877 152.702 9.64355C153.071 8.89941 153.581 8.3252 154.231 7.9209C154.888 7.5166 155.635 7.31445 156.473 7.31445C157.768 7.31445 158.813 7.7627 159.61 8.65918C160.413 9.55566 160.814 10.748 160.814 12.2363V12.3506C160.814 13.2764 160.636 14.1084 160.278 14.8467C159.927 15.5791 159.42 16.1504 158.758 16.5605C158.102 16.9707 157.346 17.1758 156.49 17.1758C155.201 17.1758 154.155 16.7275 153.353 15.8311C152.556 14.9346 152.157 13.748 152.157 12.2715V12.1572ZM153.792 12.3506C153.792 13.4053 154.035 14.252 154.521 14.8906C155.014 15.5293 155.67 15.8486 156.49 15.8486C157.316 15.8486 157.973 15.5264 158.459 14.8818C158.945 14.2314 159.188 13.3232 159.188 12.1572C159.188 11.1143 158.939 10.2705 158.441 9.62598C157.949 8.97559 157.293 8.65039 156.473 8.65039C155.67 8.65039 155.022 8.96973 154.53 9.6084C154.038 10.2471 153.792 11.1611 153.792 12.3506ZM162.423 12.1572C162.423 11.2256 162.604 10.3877 162.968 9.64355C163.337 8.89941 163.847 8.3252 164.497 7.9209C165.153 7.5166 165.9 7.31445 166.738 7.31445C168.033 7.31445 169.079 7.7627 169.876 8.65918C170.679 9.55566 171.08 10.748 171.08 12.2363V12.3506C171.08 13.2764 170.901 14.1084 170.544 14.8467C170.192 15.5791 169.686 16.1504 169.023 16.5605C168.367 16.9707 167.611 17.1758 166.756 17.1758C165.467 17.1758 164.421 16.7275 163.618 15.8311C162.821 14.9346 162.423 13.748 162.423 12.2715V12.1572ZM164.058 12.3506C164.058 13.4053 164.301 14.252 164.787 14.8906C165.279 15.5293 165.936 15.8486 166.756 15.8486C167.582 15.8486 168.238 15.5264 168.725 14.8818C169.211 14.2314 169.454 13.3232 169.454 12.1572C169.454 11.1143 169.205 10.2705 168.707 9.62598C168.215 8.97559 167.559 8.65039 166.738 8.65039C165.936 8.65039 165.288 8.96973 164.796 9.6084C164.304 10.2471 164.058 11.1611 164.058 12.3506ZM172.732 12.166C172.732 10.6836 173.075 9.50586 173.761 8.63281C174.446 7.75391 175.354 7.31445 176.485 7.31445C177.646 7.31445 178.551 7.72461 179.201 8.54492L179.28 7.49023H180.766V16.7715C180.766 18.002 180.399 18.9717 179.667 19.6807C178.94 20.3896 177.962 20.7441 176.731 20.7441C176.046 20.7441 175.375 20.5977 174.719 20.3047C174.062 20.0117 173.562 19.6104 173.216 19.1006L174.06 18.125C174.757 18.9863 175.609 19.417 176.617 19.417C177.408 19.417 178.023 19.1943 178.463 18.749C178.908 18.3037 179.131 17.6768 179.131 16.8682V16.0508C178.48 16.8008 177.593 17.1758 176.468 17.1758C175.354 17.1758 174.452 16.7275 173.761 15.8311C173.075 14.9346 172.732 13.7129 172.732 12.166ZM174.367 12.3506C174.367 13.4229 174.587 14.2666 175.026 14.8818C175.466 15.4912 176.081 15.7959 176.872 15.7959C177.897 15.7959 178.65 15.3301 179.131 14.3984V10.0566C178.633 9.14844 177.886 8.69434 176.89 8.69434C176.099 8.69434 175.48 9.00195 175.035 9.61719C174.59 10.2324 174.367 11.1436 174.367 12.3506ZM184.993 17H183.367V3.5H184.993V17ZM191.55 17.1758C190.261 17.1758 189.212 16.7539 188.403 15.9102C187.595 15.0605 187.19 13.9268 187.19 12.5088V12.21C187.19 11.2666 187.369 10.4258 187.727 9.6875C188.09 8.94336 188.594 8.36328 189.238 7.94727C189.889 7.52539 190.592 7.31445 191.348 7.31445C192.584 7.31445 193.545 7.72168 194.23 8.53613C194.916 9.35059 195.259 10.5166 195.259 12.0342V12.7109H188.816C188.84 13.6484 189.112 14.4072 189.634 14.9873C190.161 15.5615 190.829 15.8486 191.638 15.8486C192.212 15.8486 192.698 15.7314 193.097 15.4971C193.495 15.2627 193.844 14.9521 194.143 14.5654L195.136 15.3389C194.339 16.5635 193.144 17.1758 191.55 17.1758ZM191.348 8.65039C190.691 8.65039 190.141 8.89062 189.695 9.37109C189.25 9.8457 188.975 10.5137 188.869 11.375H193.633V11.252C193.586 10.4258 193.363 9.78711 192.965 9.33594C192.566 8.87891 192.027 8.65039 191.348 8.65039ZM205.639 11.2959C204.191 10.8799 203.137 10.3701 202.475 9.7666C201.818 9.15723 201.49 8.40723 201.49 7.5166C201.49 6.50879 201.892 5.67676 202.694 5.02051C203.503 4.3584 204.552 4.02734 205.841 4.02734C206.72 4.02734 207.502 4.19727 208.188 4.53711C208.879 4.87695 209.412 5.3457 209.787 5.94336C210.168 6.54102 210.358 7.19434 210.358 7.90332H208.662C208.662 7.12988 208.416 6.52344 207.924 6.08398C207.432 5.63867 206.737 5.41602 205.841 5.41602C205.009 5.41602 204.358 5.60059 203.89 5.96973C203.427 6.33301 203.195 6.83984 203.195 7.49023C203.195 8.01172 203.415 8.4541 203.854 8.81738C204.3 9.1748 205.053 9.50293 206.113 9.80176C207.18 10.1006 208.012 10.4316 208.609 10.7949C209.213 11.1523 209.658 11.5713 209.945 12.0518C210.238 12.5322 210.385 13.0977 210.385 13.748C210.385 14.7852 209.98 15.6172 209.172 16.2441C208.363 16.8652 207.282 17.1758 205.929 17.1758C205.05 17.1758 204.229 17.0088 203.468 16.6748C202.706 16.335 202.117 15.8721 201.701 15.2861C201.291 14.7002 201.086 14.0352 201.086 13.291H202.782C202.782 14.0645 203.066 14.6768 203.635 15.1279C204.209 15.5732 204.974 15.7959 205.929 15.7959C206.819 15.7959 207.502 15.6143 207.977 15.251C208.451 14.8877 208.688 14.3926 208.688 13.7656C208.688 13.1387 208.469 12.6553 208.029 12.3154C207.59 11.9697 206.793 11.6299 205.639 11.2959ZM218.172 16.0596C217.539 16.8037 216.61 17.1758 215.386 17.1758C214.372 17.1758 213.599 16.8828 213.065 16.2969C212.538 15.7051 212.271 14.832 212.266 13.6777V7.49023H213.892V13.6338C213.892 15.0752 214.478 15.7959 215.649 15.7959C216.892 15.7959 217.718 15.333 218.128 14.4072V7.49023H219.754V17H218.207L218.172 16.0596ZM223.999 17H222.373V7.49023H223.999V17ZM222.241 4.96777C222.241 4.7041 222.32 4.48145 222.479 4.2998C222.643 4.11816 222.883 4.02734 223.199 4.02734C223.516 4.02734 223.756 4.11816 223.92 4.2998C224.084 4.48145 224.166 4.7041 224.166 4.96777C224.166 5.23145 224.084 5.45117 223.92 5.62695C223.756 5.80273 223.516 5.89062 223.199 5.89062C222.883 5.89062 222.643 5.80273 222.479 5.62695C222.32 5.45117 222.241 5.23145 222.241 4.96777ZM228.815 5.1875V7.49023H230.591V8.74707H228.815V14.6445C228.815 15.0254 228.895 15.3125 229.053 15.5059C229.211 15.6934 229.48 15.7871 229.861 15.7871C230.049 15.7871 230.307 15.752 230.635 15.6816V17C230.207 17.1172 229.791 17.1758 229.387 17.1758C228.66 17.1758 228.112 16.9561 227.743 16.5166C227.374 16.0771 227.189 15.4531 227.189 14.6445V8.74707H225.458V7.49023H227.189V5.1875H228.815ZM236.444 17.1758C235.155 17.1758 234.106 16.7539 233.298 15.9102C232.489 15.0605 232.085 13.9268 232.085 12.5088V12.21C232.085 11.2666 232.264 10.4258 232.621 9.6875C232.984 8.94336 233.488 8.36328 234.133 7.94727C234.783 7.52539 235.486 7.31445 236.242 7.31445C237.479 7.31445 238.439 7.72168 239.125 8.53613C239.811 9.35059 240.153 10.5166 240.153 12.0342V12.7109H233.711C233.734 13.6484 234.007 14.4072 234.528 14.9873C235.056 15.5615 235.724 15.8486 236.532 15.8486C237.106 15.8486 237.593 15.7314 237.991 15.4971C238.39 15.2627 238.738 14.9521 239.037 14.5654L240.03 15.3389C239.233 16.5635 238.038 17.1758 236.444 17.1758ZM236.242 8.65039C235.586 8.65039 235.035 8.89062 234.59 9.37109C234.145 9.8457 233.869 10.5137 233.764 11.375H238.527V11.252C238.48 10.4258 238.258 9.78711 237.859 9.33594C237.461 8.87891 236.922 8.65039 236.242 8.65039Z" fill="black"/>
<rect x="4" width="19" height="5" rx="1" fill="#1D82F7"/>
<rect x="9" y="7" width="19" height="5" rx="1" fill="#0BA35F"/>
<rect y="14" width="19" height="5" rx="1" fill="#FACC4E"/>
</svg>
